# xmcd CD database file
#
# Track frame offsets:
#	150
#	25521
#	46011
#	69370
#	100722
#	120145
#	139724
#	160288
#	189903
#	206649
#	222860
#	244542
#
# Disc length: 3434 seconds
#
# Revision: 3
# Processed by: cddbd v1.5.2PL0 Copyright (c) Steve Scherf et al.
# Submitted via: CDex 1.51
#
DISCID=8f0d680c
DTITLE=Various Artist - Crucial Guitar Blues
DYEAR=2003
DGENRE=Blues
TTITLE0=Luther Allison - All The King's Horses
TTITLE1=Michael Burks - Heartless
TTITLE2=Coco Montoya - Same Old Thing
TTITLE3=Albert Collins - Lights Are On But Nobody's Home
TTITLE4=Little Charlie and The Nightcats - Percolatin'
TTITLE5=Tinsley Ellis - To The Devil For A Dime
TTITLE6=Roy Buchanan - Country Boogie
TTITLE7=Son Seals - I Can't Hear Nothing But The Blues
TTITLE8=Dave Hole - Phone Line
TTITLE9=Lonnie Mack with Stevie Ray Vaughn - Double Whammy
TTITLE10=Johnny Winter - I Smell Trouble
TTITLE11=Clarence 'Gatemouth' Brown - Pressure Cooker
EXTD=YEAR: 2003
EXTT0=
EXTT1=
EXTT2=
EXTT3=
EXTT4=
EXTT5=
EXTT6=
EXTT7=
EXTT8=
EXTT9=
EXTT10=
EXTT11=
PLAYORDER=
